<mxfile host="app.diagrams.net" modified="2021-12-07T17:18:16.349Z" agent="5.0 (Macintosh; Intel Mac OS X 10_15_7) AppleWebKit/537.36 (KHTML, like Gecko) Chrome/96.0.4664.55 Safari/537.36" etag="aVQLFqdXdwMigFtNWWO4" version="15.9.1" type="github">
  <diagram id="PWjQu_oilxp3dFePgX2O" name="Page-1">
    <mxGraphModel dx="1426" dy="921" grid="1" gridSize="10" guides="1" tooltips="1" connect="1" arrows="1" fold="1" page="1" pageScale="1" pageWidth="827" pageHeight="1169" math="0" shadow="0">
      <root>
        <mxCell id="0" />
        <mxCell id="1" parent="0" />
        <mxCell id="4HjXy6ZqHQuGr-Vdr354-6" value="" style="verticalLabelPosition=bottom;shadow=0;dashed=0;align=center;html=1;verticalAlign=top;strokeWidth=1;shape=ellipse;perimeter=ellipsePerimeter;" vertex="1" parent="1">
          <mxGeometry x="460" y="39.5" width="15" height="15" as="geometry" />
        </mxCell>
        <mxCell id="4HjXy6ZqHQuGr-Vdr354-8" value="" style="verticalLabelPosition=bottom;shadow=0;dashed=0;align=center;html=1;verticalAlign=top;strokeWidth=1;shape=ellipse;perimeter=ellipsePerimeter;" vertex="1" parent="1">
          <mxGeometry x="460" y="87.5" width="15" height="15" as="geometry" />
        </mxCell>
        <mxCell id="4HjXy6ZqHQuGr-Vdr354-9" value="" style="verticalLabelPosition=bottom;shadow=0;dashed=0;align=center;html=1;verticalAlign=top;strokeWidth=1;shape=ellipse;perimeter=ellipsePerimeter;" vertex="1" parent="1">
          <mxGeometry x="460" y="187.5" width="15" height="15" as="geometry" />
        </mxCell>
        <mxCell id="4HjXy6ZqHQuGr-Vdr354-15" value="3.3V ESP32" style="text;html=1;strokeColor=none;fillColor=none;align=center;verticalAlign=middle;whiteSpace=wrap;rounded=0;" vertex="1" parent="1">
          <mxGeometry x="480" y="32.5" width="60" height="30" as="geometry" />
        </mxCell>
        <mxCell id="4HjXy6ZqHQuGr-Vdr354-16" value="GND ESP32" style="text;html=1;strokeColor=none;fillColor=none;align=center;verticalAlign=middle;whiteSpace=wrap;rounded=0;" vertex="1" parent="1">
          <mxGeometry x="480" y="80" width="60" height="30" as="geometry" />
        </mxCell>
        <mxCell id="4HjXy6ZqHQuGr-Vdr354-17" value="LoRA-MOSI - 23 ESP32" style="text;html=1;strokeColor=none;fillColor=none;align=center;verticalAlign=middle;whiteSpace=wrap;rounded=0;" vertex="1" parent="1">
          <mxGeometry x="480" y="180" width="100" height="20" as="geometry" />
        </mxCell>
        <mxCell id="4HjXy6ZqHQuGr-Vdr354-20" value="" style="verticalLabelPosition=bottom;shadow=0;dashed=0;align=center;html=1;verticalAlign=top;strokeWidth=1;shape=ellipse;perimeter=ellipsePerimeter;" vertex="1" parent="1">
          <mxGeometry x="200" y="40" width="15" height="15" as="geometry" />
        </mxCell>
        <mxCell id="4HjXy6ZqHQuGr-Vdr354-21" value="" style="verticalLabelPosition=bottom;shadow=0;dashed=0;align=center;html=1;verticalAlign=top;strokeWidth=1;shape=ellipse;perimeter=ellipsePerimeter;" vertex="1" parent="1">
          <mxGeometry x="200" y="87.5" width="15" height="15" as="geometry" />
        </mxCell>
        <mxCell id="4HjXy6ZqHQuGr-Vdr354-22" value="" style="verticalLabelPosition=bottom;shadow=0;dashed=0;align=center;html=1;verticalAlign=top;strokeWidth=1;shape=ellipse;perimeter=ellipsePerimeter;" vertex="1" parent="1">
          <mxGeometry x="200" y="137.5" width="15" height="15" as="geometry" />
        </mxCell>
        <mxCell id="4HjXy6ZqHQuGr-Vdr354-23" value="VCC RC522" style="text;html=1;strokeColor=none;fillColor=none;align=center;verticalAlign=middle;whiteSpace=wrap;rounded=0;" vertex="1" parent="1">
          <mxGeometry x="120" y="32.5" width="60" height="30" as="geometry" />
        </mxCell>
        <mxCell id="4HjXy6ZqHQuGr-Vdr354-24" value="GND RC522" style="text;html=1;strokeColor=none;fillColor=none;align=center;verticalAlign=middle;whiteSpace=wrap;rounded=0;" vertex="1" parent="1">
          <mxGeometry x="120" y="80" width="60" height="30" as="geometry" />
        </mxCell>
        <mxCell id="4HjXy6ZqHQuGr-Vdr354-25" value="SCK RC522" style="text;html=1;strokeColor=none;fillColor=none;align=center;verticalAlign=middle;whiteSpace=wrap;rounded=0;" vertex="1" parent="1">
          <mxGeometry x="120" y="130" width="60" height="30" as="geometry" />
        </mxCell>
        <mxCell id="4HjXy6ZqHQuGr-Vdr354-32" value="" style="verticalLabelPosition=bottom;shadow=0;dashed=0;align=center;html=1;verticalAlign=top;strokeWidth=1;shape=ellipse;perimeter=ellipsePerimeter;" vertex="1" parent="1">
          <mxGeometry x="200" y="187.5" width="15" height="15" as="geometry" />
        </mxCell>
        <mxCell id="4HjXy6ZqHQuGr-Vdr354-33" value="MOSI RC522" style="text;html=1;strokeColor=none;fillColor=none;align=center;verticalAlign=middle;whiteSpace=wrap;rounded=0;" vertex="1" parent="1">
          <mxGeometry x="120" y="180" width="60" height="30" as="geometry" />
        </mxCell>
        <mxCell id="4HjXy6ZqHQuGr-Vdr354-34" value="" style="verticalLabelPosition=bottom;shadow=0;dashed=0;align=center;html=1;verticalAlign=top;strokeWidth=1;shape=ellipse;perimeter=ellipsePerimeter;" vertex="1" parent="1">
          <mxGeometry x="200" y="237.5" width="15" height="15" as="geometry" />
        </mxCell>
        <mxCell id="4HjXy6ZqHQuGr-Vdr354-35" value="MISO RC522" style="text;html=1;strokeColor=none;fillColor=none;align=center;verticalAlign=middle;whiteSpace=wrap;rounded=0;" vertex="1" parent="1">
          <mxGeometry x="120" y="230" width="60" height="30" as="geometry" />
        </mxCell>
        <mxCell id="4HjXy6ZqHQuGr-Vdr354-37" value="" style="verticalLabelPosition=bottom;shadow=0;dashed=0;align=center;html=1;verticalAlign=top;strokeWidth=1;shape=ellipse;perimeter=ellipsePerimeter;" vertex="1" parent="1">
          <mxGeometry x="200" y="287.5" width="15" height="15" as="geometry" />
        </mxCell>
        <mxCell id="4HjXy6ZqHQuGr-Vdr354-38" value="RST RC522" style="text;html=1;strokeColor=none;fillColor=none;align=center;verticalAlign=middle;whiteSpace=wrap;rounded=0;" vertex="1" parent="1">
          <mxGeometry x="120" y="280" width="60" height="30" as="geometry" />
        </mxCell>
        <mxCell id="4HjXy6ZqHQuGr-Vdr354-39" value="" style="verticalLabelPosition=bottom;shadow=0;dashed=0;align=center;html=1;verticalAlign=top;strokeWidth=1;shape=ellipse;perimeter=ellipsePerimeter;" vertex="1" parent="1">
          <mxGeometry x="200" y="337.5" width="15" height="15" as="geometry" />
        </mxCell>
        <mxCell id="4HjXy6ZqHQuGr-Vdr354-40" value="SDA RC522" style="text;html=1;strokeColor=none;fillColor=none;align=center;verticalAlign=middle;whiteSpace=wrap;rounded=0;" vertex="1" parent="1">
          <mxGeometry x="120" y="330" width="60" height="30" as="geometry" />
        </mxCell>
        <mxCell id="4HjXy6ZqHQuGr-Vdr354-42" value="" style="verticalLabelPosition=bottom;shadow=0;dashed=0;align=center;html=1;verticalAlign=top;strokeWidth=1;shape=ellipse;perimeter=ellipsePerimeter;" vertex="1" parent="1">
          <mxGeometry x="460" y="237.5" width="15" height="15" as="geometry" />
        </mxCell>
        <mxCell id="4HjXy6ZqHQuGr-Vdr354-43" value="LoRA-MISO - 19 ESP32" style="text;html=1;strokeColor=none;fillColor=none;align=center;verticalAlign=middle;whiteSpace=wrap;rounded=0;" vertex="1" parent="1">
          <mxGeometry x="480" y="230" width="100" height="20" as="geometry" />
        </mxCell>
        <mxCell id="4HjXy6ZqHQuGr-Vdr354-44" value="" style="verticalLabelPosition=bottom;shadow=0;dashed=0;align=center;html=1;verticalAlign=top;strokeWidth=1;shape=ellipse;perimeter=ellipsePerimeter;" vertex="1" parent="1">
          <mxGeometry x="460" y="137.5" width="15" height="15" as="geometry" />
        </mxCell>
        <mxCell id="4HjXy6ZqHQuGr-Vdr354-45" value="LoRA-SCK - 18 ESP32" style="text;html=1;strokeColor=none;fillColor=none;align=center;verticalAlign=middle;whiteSpace=wrap;rounded=0;" vertex="1" parent="1">
          <mxGeometry x="480" y="130" width="100" height="20" as="geometry" />
        </mxCell>
        <mxCell id="4HjXy6ZqHQuGr-Vdr354-50" value="" style="verticalLabelPosition=bottom;shadow=0;dashed=0;align=center;html=1;verticalAlign=top;strokeWidth=1;shape=ellipse;perimeter=ellipsePerimeter;" vertex="1" parent="1">
          <mxGeometry x="460" y="337.5" width="15" height="15" as="geometry" />
        </mxCell>
        <mxCell id="4HjXy6ZqHQuGr-Vdr354-51" value="LoRA-SCK - 5 ESP32" style="text;html=1;strokeColor=none;fillColor=none;align=center;verticalAlign=middle;whiteSpace=wrap;rounded=0;" vertex="1" parent="1">
          <mxGeometry x="480" y="330" width="100" height="20" as="geometry" />
        </mxCell>
        <mxCell id="4HjXy6ZqHQuGr-Vdr354-52" value="" style="endArrow=none;html=1;rounded=0;entryX=1;entryY=0.5;entryDx=0;entryDy=0;exitX=0;exitY=0.5;exitDx=0;exitDy=0;" edge="1" parent="1" source="4HjXy6ZqHQuGr-Vdr354-6" target="4HjXy6ZqHQuGr-Vdr354-20">
          <mxGeometry width="50" height="50" relative="1" as="geometry">
            <mxPoint x="390" y="460" as="sourcePoint" />
            <mxPoint x="440" y="410" as="targetPoint" />
          </mxGeometry>
        </mxCell>
        <mxCell id="4HjXy6ZqHQuGr-Vdr354-53" value="" style="endArrow=none;html=1;rounded=0;entryX=1;entryY=0.5;entryDx=0;entryDy=0;exitX=0;exitY=0.5;exitDx=0;exitDy=0;" edge="1" parent="1" source="4HjXy6ZqHQuGr-Vdr354-8" target="4HjXy6ZqHQuGr-Vdr354-21">
          <mxGeometry width="50" height="50" relative="1" as="geometry">
            <mxPoint x="450" y="80" as="sourcePoint" />
            <mxPoint x="230" y="80" as="targetPoint" />
          </mxGeometry>
        </mxCell>
        <mxCell id="4HjXy6ZqHQuGr-Vdr354-54" value="" style="endArrow=none;html=1;rounded=0;entryX=1;entryY=0.5;entryDx=0;entryDy=0;exitX=0;exitY=0.5;exitDx=0;exitDy=0;" edge="1" parent="1" source="4HjXy6ZqHQuGr-Vdr354-44" target="4HjXy6ZqHQuGr-Vdr354-22">
          <mxGeometry width="50" height="50" relative="1" as="geometry">
            <mxPoint x="475" y="170" as="sourcePoint" />
            <mxPoint x="230" y="170.5" as="targetPoint" />
          </mxGeometry>
        </mxCell>
        <mxCell id="4HjXy6ZqHQuGr-Vdr354-55" value="" style="endArrow=none;html=1;rounded=0;entryX=1;entryY=0.5;entryDx=0;entryDy=0;exitX=0;exitY=0.5;exitDx=0;exitDy=0;" edge="1" parent="1" source="4HjXy6ZqHQuGr-Vdr354-9" target="4HjXy6ZqHQuGr-Vdr354-32">
          <mxGeometry width="50" height="50" relative="1" as="geometry">
            <mxPoint x="490" y="77" as="sourcePoint" />
            <mxPoint x="245" y="77.5" as="targetPoint" />
          </mxGeometry>
        </mxCell>
        <mxCell id="4HjXy6ZqHQuGr-Vdr354-56" value="" style="endArrow=none;html=1;rounded=0;entryX=1;entryY=0.5;entryDx=0;entryDy=0;exitX=0;exitY=0.5;exitDx=0;exitDy=0;" edge="1" parent="1" source="4HjXy6ZqHQuGr-Vdr354-42" target="4HjXy6ZqHQuGr-Vdr354-34">
          <mxGeometry width="50" height="50" relative="1" as="geometry">
            <mxPoint x="500" y="87" as="sourcePoint" />
            <mxPoint x="255" y="87.5" as="targetPoint" />
          </mxGeometry>
        </mxCell>
        <mxCell id="4HjXy6ZqHQuGr-Vdr354-57" value="" style="endArrow=none;html=1;rounded=0;entryX=1;entryY=0.5;entryDx=0;entryDy=0;exitX=0;exitY=0.5;exitDx=0;exitDy=0;" edge="1" parent="1" source="4HjXy6ZqHQuGr-Vdr354-50" target="4HjXy6ZqHQuGr-Vdr354-39">
          <mxGeometry width="50" height="50" relative="1" as="geometry">
            <mxPoint x="510" y="97" as="sourcePoint" />
            <mxPoint x="265" y="97.5" as="targetPoint" />
          </mxGeometry>
        </mxCell>
      </root>
    </mxGraphModel>
  </diagram>
</mxfile>
